<svg width="14" height="9" viewBox="0 0 14 9" fill="none" xmlns="http://www.w3.org/2000/svg">
<path d="M6.99976 8.25002C6.82428 8.25104 6.65033 8.2174 6.48788 8.15105C6.32543 8.0847 6.17768 7.98693 6.05309 7.86336L0.719759 2.53002C0.595441 2.4057 0.496827 2.25812 0.429546 2.09569C0.362266 1.93326 0.327637 1.75917 0.327637 1.58336C0.327637 1.22829 0.468687 0.887761 0.719759 0.636689C0.970831 0.385618 1.31136 0.244568 1.66643 0.244568C2.02149 0.244568 2.36202 0.385618 2.61309 0.636689L6.99976 5.03669L11.3864 0.650023C11.6415 0.431588 11.9696 0.317446 12.3052 0.330407C12.6407 0.343369 12.9591 0.48248 13.1965 0.719939C13.434 0.957398 13.5731 1.27572 13.586 1.61128C13.599 1.94685 13.4849 2.27495 13.2664 2.53002L7.93309 7.86336C7.68474 8.10968 7.34955 8.24855 6.99976 8.25002Z" fill="#8A96B1"/>
</svg>
