<svg width="14" height="9" viewBox="0 0 14 9" fill="none" xmlns="http://www.w3.org/2000/svg">
<path d="M6.91479 0.244606C7.09027 0.243592 7.26422 0.277226 7.42667 0.343579C7.58912 0.409932 7.73687 0.507698 7.86146 0.631273L13.1948 5.96461C13.3191 6.08892 13.4177 6.23651 13.485 6.39894C13.5523 6.56137 13.5869 6.73546 13.5869 6.91127C13.5869 7.26634 13.4459 7.60687 13.1948 7.85794C12.9437 8.10901 12.6032 8.25006 12.2481 8.25006C11.8931 8.25006 11.5525 8.10901 11.3015 7.85794L6.91479 3.45794L2.52813 7.84461C2.27306 8.06304 1.94496 8.17718 1.60939 8.16422C1.27382 8.15126 0.955501 8.01215 0.718041 7.77469C0.480582 7.53723 0.341474 7.21891 0.328512 6.88334C0.315551 6.54778 0.42969 6.21967 0.648125 5.96461L5.98146 0.631273C6.22981 0.384948 6.56501 0.246079 6.91479 0.244606Z" fill="#8A96B1"/>
</svg>
