<svg aria-hidden="true" style="position: absolute; width: 0; height: 0; overflow: hidden;" version="1.1" xmlns="http://www.w3.org/2000/svg" xmlns:xlink="http://www.w3.org/1999/xlink">
  <defs>
    <symbol id="home" width="32" height="32" viewBox="0 0 32 32">
      <path d="M28 7.85328C28.0075 7.76455 28.0075 7.67534 28 7.58661L27.88 7.33328C27.88 7.33328 27.88 7.23994 27.8133 7.19994L27.7467 7.13328L27.5333 6.95994C27.475 6.90061 27.4075 6.85109 27.3333 6.81328L27.1067 6.73328H26.84H5.24H4.97333L4.74667 6.82661C4.67233 6.8583 4.60451 6.90351 4.54667 6.95994L4.33333 7.13328C4.33333 7.13328 4.33333 7.13328 4.33333 7.19994C4.33333 7.26661 4.33333 7.29328 4.26667 7.33328L4.14667 7.58661C4.13912 7.67534 4.13912 7.76455 4.14667 7.85328L4 7.99994V23.9999C4 24.3536 4.14048 24.6927 4.39052 24.9428C4.64057 25.1928 4.97971 25.3333 5.33333 25.3333H17.3333C17.687 25.3333 18.0261 25.1928 18.2761 24.9428C18.5262 24.6927 18.6667 24.3536 18.6667 23.9999C18.6667 23.6463 18.5262 23.3072 18.2761 23.0571C18.0261 22.8071 17.687 22.6666 17.3333 22.6666H6.66667V10.6666L15.2 17.0666C15.4308 17.2397 15.7115 17.3333 16 17.3333C16.2885 17.3333 16.5692 17.2397 16.8 17.0666L25.3333 10.6666V22.6666H22.6667C22.313 22.6666 21.9739 22.8071 21.7239 23.0571C21.4738 23.3072 21.3333 23.6463 21.3333 23.9999C21.3333 24.3536 21.4738 24.6927 21.7239 24.9428C21.9739 25.1928 22.313 25.3333 22.6667 25.3333H26.6667C27.0203 25.3333 27.3594 25.1928 27.6095 24.9428C27.8595 24.6927 28 24.3536 28 23.9999V7.99994C28 7.99994 28 7.90661 28 7.85328ZM16 14.3333L9.33333 9.33328H22.6667L16 14.3333Z" />
    </symbol>
  </defs>
</svg>
